<?xml version="1.0" encoding="UTF-8"?>
<svg xmlns="http://www.w3.org/2000/svg" xmlns:xlink="http://www.w3.org/1999/xlink" width="538.54pt" height="690.6pt" viewBox="0 0 538.54 690.6" version="1.1">
<defs>
<clipPath id="clip1">
  <path d="M 0 0 L 538.539063 0 L 538.539063 690.601563 L 0 690.601563 Z M 0 0 "/>
</clipPath>
</defs>
<g id="surface1">
<g clip-path="url(#clip1)" clip-rule="nonzero">
<path style=" stroke:none;fill-rule:nonzero;fill:rgb(13.299561%,11.799622%,12.199402%);fill-opacity:1;" d="M 511.351563 690.601563 L 538.542969 690.601563 C 538.269531 674.792969 538.308594 658.757813 537.859375 642.515625 C 537.632813 634.394531 537.28125 626.21875 536.683594 618 C 536.082031 609.785156 535.234375 601.519531 533.992188 593.246094 C 532.746094 584.972656 531.101563 576.679688 528.886719 568.464844 C 526.671875 560.25 523.886719 552.105469 520.382813 544.210938 C 516.882813 536.316406 512.664063 528.675781 507.71875 521.523438 C 502.871094 514.511719 497.335938 507.976563 491.269531 502.054688 C 490.003906 500.453125 488.714844 498.878906 487.402344 497.328125 C 488.640625 492.148438 489.820313 486.949219 490.8125 481.675781 L 491.292969 479.230469 L 491.410156 478.617188 L 491.519531 478 L 491.730469 476.765625 L 492.578125 471.835938 C 492.832031 470.183594 493.070313 468.523438 493.3125 466.871094 L 493.496094 465.628906 C 493.558594 465.214844 493.621094 464.800781 493.667969 464.382813 L 493.972656 461.882813 L 494.273438 459.382813 C 494.324219 458.964844 494.378906 458.550781 494.421875 458.128906 L 494.539063 456.871094 L 495.007813 451.835938 L 495.339844 446.773438 C 495.402344 445.933594 495.425781 445.082031 495.457031 444.234375 L 495.546875 441.6875 C 495.746094 434.894531 495.597656 428.042969 494.96875 421.183594 C 494.339844 414.328125 493.230469 407.460938 491.546875 400.710938 L 491.238281 399.445313 C 491.132813 399.027344 491.003906 398.609375 490.890625 398.1875 L 490.183594 395.675781 C 489.957031 394.835938 489.667969 394.015625 489.410156 393.183594 L 488.605469 390.703125 L 487.714844 388.25 C 487.417969 387.433594 487.128906 386.613281 486.796875 385.8125 L 485.820313 383.398438 L 485.574219 382.792969 L 485.3125 382.199219 L 484.785156 381.011719 L 484.257813 379.828125 C 484.078125 379.433594 483.910156 379.03125 483.71875 378.648438 L 483.464844 378.125 C 483.511719 378.058594 483.554688 377.988281 483.601563 377.917969 C 484.476563 376.636719 485.378906 375.390625 486.324219 374.203125 C 488.214844 371.828125 490.265625 369.691406 492.710938 367.996094 C 493.933594 367.144531 495.25 366.394531 496.65625 365.742188 C 498.066406 365.09375 499.558594 364.535156 501.09375 364.039063 C 504.164063 363.054688 507.386719 362.289063 510.597656 361.535156 C 507.296875 361.390625 504 361.246094 500.628906 361.363281 C 498.941406 361.421875 497.230469 361.558594 495.503906 361.828125 C 493.777344 362.105469 492.03125 362.523438 490.3125 363.113281 C 488.59375 363.695313 486.925781 364.460938 485.328125 365.332031 C 483.734375 366.203125 482.21875 367.1875 480.769531 368.226563 C 480.164063 368.660156 479.570313 369.105469 478.984375 369.558594 L 478.949219 369.496094 L 478.316406 368.378906 L 477.65625 367.28125 L 476.335938 365.097656 L 474.96875 362.953125 L 474.28125 361.882813 C 474.050781 361.53125 473.8125 361.183594 473.578125 360.832031 L 472.164063 358.738281 L 470.714844 356.683594 L 469.992188 355.660156 L 469.253906 354.652344 L 467.773438 352.644531 L 466.269531 350.667969 L 465.519531 349.683594 L 464.761719 348.714844 L 463.238281 346.773438 L 462.730469 346.125 L 462.496094 345.902344 C 455.605469 339.394531 448.601563 333.164063 441.660156 326.964844 C 434.71875 320.765625 427.839844 314.601563 421.1875 308.261719 C 414.539063 301.921875 408.121094 295.40625 402.148438 288.535156 C 399.253906 285.207031 396.464844 281.796875 393.8125 278.285156 L 394.535156 277.695313 C 394.867188 277.421875 395.199219 277.160156 395.515625 276.871094 L 397.433594 275.175781 C 399.953125 272.863281 402.347656 270.425781 404.578125 267.84375 C 409.003906 262.640625 412.757813 256.855469 415.398438 250.605469 C 418.042969 244.367188 419.550781 237.675781 419.640625 231.015625 C 419.703125 227.6875 419.367188 224.371094 418.675781 221.160156 C 418 217.945313 416.882813 214.84375 415.414063 211.964844 C 416.464844 215.023438 417.121094 218.183594 417.328125 221.355469 C 417.554688 224.523438 417.425781 227.695313 416.933594 230.796875 C 415.964844 237 413.707031 242.890625 410.539063 248.160156 C 407.371094 253.4375 403.304688 258.089844 398.746094 262.136719 C 396.449219 264.144531 394.019531 265.996094 391.507813 267.726563 L 389.597656 268.984375 C 389.285156 269.199219 388.953125 269.394531 388.628906 269.59375 L 387.953125 270 C 387.246094 268.929688 386.546875 267.84375 385.871094 266.753906 C 381.097656 259.0625 377.078125 250.898438 374.085938 242.328125 C 371.089844 233.765625 369.132813 224.808594 368.257813 215.691406 C 367.816406 211.132813 367.640625 206.539063 367.703125 201.933594 L 367.742188 200.207031 C 367.761719 199.632813 367.761719 199.054688 367.796875 198.480469 L 367.976563 195.023438 L 368.25 191.574219 C 368.289063 190.996094 368.363281 190.425781 368.421875 189.847656 L 368.609375 188.125 C 369.140625 183.53125 369.875 178.949219 370.789063 174.394531 C 371.726563 169.847656 372.835938 165.328125 374.078125 160.839844 C 372.519531 165.226563 371.078125 169.664063 369.808594 174.160156 C 368.5625 178.660156 367.488281 183.21875 366.617188 187.824219 L 366.300781 189.554688 C 366.199219 190.132813 366.082031 190.707031 366 191.285156 L 365.46875 194.769531 L 365.035156 198.265625 C 364.953125 198.851563 364.910156 199.4375 364.851563 200.023438 L 364.683594 201.78125 C 364.28125 206.472656 364.121094 211.199219 364.234375 215.933594 C 364.453125 225.394531 365.808594 234.890625 368.308594 244.113281 C 370.796875 253.339844 374.417969 262.277344 378.867188 270.75 C 382.792969 278.222656 387.351563 285.339844 392.289063 292.140625 C 391.71875 292.140625 391.148438 292.144531 390.617188 292.203125 C 390.242188 292.230469 389.867188 292.253906 389.503906 292.296875 L 388.4375 292.4375 C 387.714844 292.527344 387.054688 292.667969 386.367188 292.785156 L 385.859375 292.878906 L 385.363281 292.984375 L 384.375 293.195313 C 383.714844 293.332031 383.074219 293.488281 382.429688 293.640625 L 380.53125 294.085938 C 379.914063 294.230469 379.289063 294.390625 378.671875 294.519531 C 376.1875 295.089844 373.703125 295.5625 371.210938 295.902344 C 368.714844 296.242188 366.203125 296.4375 363.691406 296.394531 C 361.179688 296.355469 358.660156 296.074219 356.171875 295.503906 C 353.6875 294.9375 351.246094 294.085938 348.878906 293.003906 C 351.019531 294.480469 353.3125 295.769531 355.753906 296.796875 C 358.191406 297.828125 360.769531 298.59375 363.402344 299.101563 C 366.035156 299.609375 368.71875 299.871094 371.394531 299.976563 C 374.066406 300.082031 376.742188 300.046875 379.386719 299.914063 C 380.054688 299.890625 380.707031 299.839844 381.371094 299.804688 L 383.316406 299.695313 C 383.949219 299.660156 384.59375 299.617188 385.214844 299.601563 L 386.152344 299.566406 L 386.621094 299.550781 L 387.078125 299.546875 C 387.679688 299.550781 388.304688 299.527344 388.875 299.5625 L 389.746094 299.601563 C 390.03125 299.621094 390.300781 299.65625 390.578125 299.679688 C 391.136719 299.714844 391.628906 299.839844 392.140625 299.914063 C 392.382813 299.976563 392.617188 300.046875 392.855469 300.105469 C 392.972656 300.140625 393.09375 300.160156 393.210938 300.203125 L 393.550781 300.328125 L 393.894531 300.449219 L 394.0625 300.507813 C 394.121094 300.53125 394.175781 300.558594 394.234375 300.585938 L 394.914063 300.890625 C 395.023438 300.933594 395.144531 301.003906 395.261719 301.0625 L 395.609375 301.25 L 395.957031 301.429688 C 396.074219 301.488281 396.199219 301.570313 396.316406 301.640625 L 397.039063 302.066406 C 397.28125 302.207031 397.539063 302.378906 397.785156 302.535156 C 398.035156 302.695313 398.28125 302.847656 398.535156 303.015625 L 399.308594 303.53125 C 400.671875 304.445313 402.074219 305.414063 403.492188 306.394531 C 406.441406 309.898438 409.460938 313.332031 412.527344 316.707031 C 425.015625 330.46875 438.21875 343.320313 450.425781 356.59375 L 451.5625 358.285156 L 452.214844 359.25 L 452.847656 360.21875 L 454.109375 362.152344 L 455.335938 364.097656 L 455.945313 365.070313 L 456.535156 366.046875 L 457.710938 368 L 458.835938 369.964844 C 459.023438 370.292969 459.214844 370.617188 459.398438 370.945313 L 459.933594 371.9375 L 461.003906 373.914063 L 462.019531 375.910156 L 462.527344 376.90625 L 463.003906 377.910156 L 463.953125 379.921875 L 464.839844 381.949219 L 465.285156 382.960938 C 465.429688 383.300781 465.558594 383.644531 465.695313 383.984375 L 466.511719 386.03125 C 466.65625 386.367188 466.769531 386.714844 466.894531 387.058594 L 467.265625 388.09375 L 467.640625 389.125 L 467.824219 389.640625 L 467.992188 390.160156 L 468.660156 392.246094 C 468.894531 392.933594 469.085938 393.640625 469.28125 394.339844 L 469.878906 396.441406 L 470.394531 398.5625 C 470.5625 399.273438 470.757813 399.96875 470.890625 400.6875 L 471.328125 402.828125 C 471.398438 403.183594 471.480469 403.535156 471.542969 403.894531 L 471.722656 404.972656 C 472.714844 410.714844 473.230469 416.550781 473.34375 422.441406 C 473.453125 428.332031 473.15625 434.273438 472.550781 440.226563 L 472.308594 442.457031 C 472.226563 443.203125 472.15625 443.945313 472.039063 444.691406 L 471.421875 449.160156 L 470.675781 453.625 L 470.492188 454.742188 C 470.425781 455.113281 470.347656 455.488281 470.277344 455.859375 L 469.839844 458.089844 L 469.40625 460.320313 C 469.335938 460.691406 469.25 461.0625 469.167969 461.433594 L 468.921875 462.550781 L 467.929688 467.003906 L 466.828125 471.453125 L 466.550781 472.5625 L 466.414063 473.117188 L 466.265625 473.671875 L 465.804688 475.351563 C 465.4375 475.023438 465.074219 474.695313 464.703125 474.371094 C 459.84375 470.082031 454.839844 465.992188 449.734375 462.070313 C 444.628906 458.148438 439.417969 454.390625 434.117188 450.785156 C 428.816406 447.179688 423.425781 443.722656 417.953125 440.410156 C 417.089844 439.886719 416.222656 439.367188 415.351563 438.847656 C 415.859375 435.792969 416.292969 432.71875 416.628906 429.621094 C 417.371094 422.777344 417.613281 415.8125 417.054688 408.859375 L 416.832031 406.257813 L 416.492188 403.664063 L 416.320313 402.367188 C 416.261719 401.9375 416.171875 401.507813 416.097656 401.078125 L 415.632813 398.507813 C 415.597656 398.292969 415.550781 398.082031 415.5 397.871094 L 415.355469 397.234375 L 415.070313 395.964844 L 414.78125 394.695313 C 414.679688 394.273438 414.558594 393.855469 414.449219 393.4375 L 413.769531 390.9375 L 413.070313 388.691406 C 413.644531 387.984375 414.246094 387.300781 414.886719 386.640625 C 416.382813 385.089844 418.058594 383.679688 419.898438 382.441406 C 421.738281 381.203125 423.742188 380.148438 425.855469 379.269531 C 427.96875 378.390625 430.1875 377.6875 432.457031 377.125 C 430.121094 377.089844 427.753906 377.199219 425.386719 377.519531 C 423.015625 377.839844 420.640625 378.378906 418.308594 379.183594 C 415.980469 379.984375 413.703125 381.050781 411.542969 382.351563 C 411.363281 382.460938 411.183594 382.574219 411.007813 382.683594 C 410.535156 381.402344 410.054688 380.132813 409.558594 378.878906 L 409.328125 378.289063 C 409.253906 378.089844 409.183594 377.910156 409.089844 377.679688 L 408.8125 377.019531 L 408.523438 376.382813 L 408.378906 376.066406 L 408.222656 375.757813 L 407.914063 375.144531 C 407.699219 374.746094 407.488281 374.34375 407.265625 373.960938 C 406.378906 372.40625 405.421875 370.949219 404.4375 369.535156 C 402.460938 366.710938 400.359375 364.0625 398.226563 361.460938 C 396.089844 358.859375 393.914063 356.320313 391.738281 353.792969 C 387.382813 348.738281 383.011719 343.738281 378.8125 338.605469 C 374.621094 333.472656 370.574219 328.21875 367.058594 322.613281 C 365.304688 319.808594 363.683594 316.921875 362.355469 313.890625 C 361.03125 310.863281 359.972656 307.691406 359.546875 304.382813 C 359.746094 307.710938 360.589844 310.992188 361.722656 314.140625 C 362.859375 317.296875 364.300781 320.335938 365.878906 323.296875 C 369.054688 329.210938 372.785156 334.796875 376.652344 340.253906 C 379.480469 344.238281 382.398438 348.144531 385.324219 352.039063 C 384.78125 352.246094 384.242188 352.46875 383.703125 352.703125 C 382.085938 353.417969 380.492188 354.238281 379.003906 355.273438 C 378.257813 355.789063 377.542969 356.363281 376.890625 357.007813 C 376.234375 357.648438 375.644531 358.375 375.183594 359.175781 C 374.71875 359.964844 374.410156 360.847656 374.289063 361.71875 C 374.164063 362.597656 374.242188 363.460938 374.441406 364.253906 C 374.542969 363.4375 374.777344 362.660156 375.152344 361.996094 C 375.527344 361.328125 376.015625 360.773438 376.585938 360.324219 C 377.722656 359.417969 379.113281 358.902344 380.546875 358.554688 C 381.988281 358.207031 383.492188 358.050781 385.011719 357.984375 C 386.527344 357.921875 388.066406 357.960938 389.601563 358.058594 L 389.550781 357.675781 C 391.210938 359.894531 392.851563 362.117188 394.449219 364.355469 C 396.359375 367.039063 398.21875 369.746094 399.878906 372.5 C 400.703125 373.878906 401.480469 375.265625 402.152344 376.65625 C 402.328125 377.003906 402.472656 377.351563 402.636719 377.695313 L 402.851563 378.214844 L 402.960938 378.472656 L 403.253906 379.246094 L 403.421875 379.75 C 403.476563 379.90625 403.539063 380.121094 403.601563 380.316406 L 403.785156 380.90625 C 404.410156 382.875 404.996094 384.835938 405.535156 386.792969 C 405.503906 386.820313 405.476563 386.847656 405.445313 386.875 L 405.597656 387.011719 C 405.898438 388.113281 406.1875 389.214844 406.460938 390.316406 L 407.019531 392.667969 L 407.488281 395.023438 C 407.5625 395.414063 407.648438 395.808594 407.714844 396.199219 L 407.898438 397.382813 L 408.085938 398.5625 L 408.175781 399.152344 C 408.207031 399.347656 408.238281 399.546875 408.257813 399.742188 L 408.519531 402.113281 C 408.558594 402.507813 408.617188 402.898438 408.640625 403.296875 L 408.71875 404.484375 L 408.867188 406.859375 L 408.90625 409.242188 C 408.980469 415.59375 408.328125 421.96875 407.203125 428.304688 C 406.890625 430.0625 406.539063 431.816406 406.160156 433.570313 C 404.535156 432.667969 402.898438 431.777344 401.25 430.902344 C 399.828125 430.144531 398.398438 429.402344 396.945313 428.664063 L 395.839844 428.113281 L 395.273438 427.832031 L 394.875 427.636719 C 394.773438 427.585938 394.664063 427.535156 394.601563 427.507813 L 394.429688 427.433594 C 394.171875 427.324219 393.859375 427.179688 393.554688 427.039063 C 393.246094 426.894531 392.933594 426.746094 392.617188 426.59375 C 390.074219 425.355469 387.488281 423.9375 384.960938 422.441406 C 379.886719 419.445313 374.957031 416.085938 370.21875 412.46875 C 360.738281 405.226563 352.011719 396.925781 344.234375 387.792969 C 336.460938 378.660156 329.640625 368.683594 323.914063 358.082031 C 318.183594 347.480469 313.546875 336.257813 310.003906 324.65625 C 308.238281 318.855469 306.742188 312.964844 305.503906 307.003906 C 304.886719 304.023438 304.332031 301.027344 303.84375 298.019531 L 303.488281 295.761719 L 303.15625 293.496094 L 302.53125 288.890625 L 302.21875 286.585938 L 302.058594 285.433594 L 301.921875 284.289063 C 301.742188 282.761719 301.546875 281.234375 301.375 279.707031 L 300.902344 275.121094 L 300.5 270.527344 C 300.011719 264.398438 299.710938 258.261719 299.625 252.121094 C 299.539063 245.980469 299.671875 239.84375 300.050781 233.71875 C 300.421875 227.597656 301.074219 221.496094 301.980469 215.433594 C 302.871094 209.371094 304.089844 203.363281 305.570313 197.414063 C 306.328125 194.449219 307.144531 191.496094 308.042969 188.566406 C 308.953125 185.640625 309.933594 182.738281 310.988281 179.859375 C 312.019531 177.046875 313.132813 174.257813 314.320313 171.5 C 317.90625 165.132813 322.015625 159.046875 326.734375 153.476563 C 329.574219 150.152344 332.632813 147.003906 335.996094 144.246094 C 337.683594 142.867188 339.441406 141.589844 341.289063 140.464844 C 341.515625 140.320313 341.753906 140.195313 341.984375 140.058594 C 342.222656 139.925781 342.449219 139.78125 342.691406 139.660156 C 343.167969 139.410156 343.640625 139.148438 344.128906 138.925781 C 345.09375 138.453125 346.085938 138.0625 347.101563 137.714844 C 349.148438 137.027344 351.296875 136.558594 353.46875 136.015625 C 355.636719 135.472656 357.84375 134.828125 359.894531 133.78125 L 360.660156 133.378906 C 360.90625 133.230469 361.152344 133.078125 361.394531 132.925781 C 361.519531 132.851563 361.644531 132.78125 361.761719 132.699219 L 362.113281 132.445313 C 362.347656 132.277344 362.589844 132.121094 362.8125 131.9375 C 363.253906 131.570313 363.710938 131.21875 364.113281 130.808594 C 364.316406 130.609375 364.53125 130.417969 364.726563 130.210938 L 365.304688 129.574219 C 366.824219 127.863281 368.019531 125.917969 369.007813 123.902344 C 370.964844 119.847656 372.195313 115.53125 373.179688 111.199219 C 373.3125 110.65625 373.40625 110.109375 373.523438 109.566406 L 373.855469 107.933594 C 374.046875 106.835938 374.246094 105.746094 374.429688 104.648438 C 374.597656 103.550781 374.773438 102.453125 374.929688 101.355469 L 375.363281 98.054688 L 374.816406 101.335938 C 374.621094 102.429688 374.410156 103.519531 374.207031 104.609375 C 373.988281 105.695313 373.75 106.777344 373.523438 107.863281 L 373.136719 109.480469 C 373.003906 110.015625 372.886719 110.558594 372.738281 111.09375 L 372.304688 112.695313 C 372.230469 112.960938 372.164063 113.230469 372.085938 113.492188 L 371.84375 114.285156 C 371.679688 114.816406 371.523438 115.34375 371.355469 115.871094 L 370.8125 117.4375 C 370.066406 119.511719 369.226563 121.554688 368.199219 123.488281 C 367.171875 125.421875 365.953125 127.25 364.46875 128.8125 L 363.90625 129.390625 C 363.714844 129.582031 363.503906 129.75 363.308594 129.933594 C 362.921875 130.304688 362.480469 130.613281 362.0625 130.941406 C 361.851563 131.105469 361.617188 131.242188 361.398438 131.390625 L 361.066406 131.613281 C 360.953125 131.6875 360.835938 131.746094 360.71875 131.8125 L 360.019531 132.207031 L 359.300781 132.558594 C 357.359375 133.464844 355.253906 134.007813 353.105469 134.472656 C 350.957031 134.933594 348.746094 135.335938 346.558594 135.988281 C 345.460938 136.316406 344.371094 136.707031 343.328125 137.175781 C 342.796875 137.394531 342.289063 137.652344 341.773438 137.902344 C 341.515625 138.023438 341.269531 138.164063 341.015625 138.296875 C 340.765625 138.433594 340.507813 138.558594 340.261719 138.703125 C 338.277344 139.820313 336.394531 141.09375 334.59375 142.46875 C 330.996094 145.21875 327.730469 148.355469 324.695313 151.679688 C 323.695313 152.777344 322.722656 153.898438 321.773438 155.039063 C 323.171875 151.929688 324.558594 148.808594 325.902344 145.671875 C 330.863281 134.132813 335.371094 122.375 339.121094 110.371094 C 342.871094 98.367188 345.871094 86.109375 347.6875 73.660156 C 347.828125 72.699219 347.960938 71.738281 348.085938 70.777344 C 348.105469 70.777344 348.128906 70.777344 348.152344 70.777344 C 350.703125 70.777344 352.691406 70.5 354.1875 70.15625 C 354.273438 70.328125 354.371094 70.496094 354.484375 70.652344 C 355.277344 71.714844 356.679688 72.21875 358.488281 72.21875 C 362.304688 72.21875 367.902344 69.976563 373.253906 65.992188 C 381.0625 60.1875 383.117188 49.535156 383.136719 49.429688 L 383.15625 49.332031 L 383.058594 49.320313 C 382.949219 49.308594 372.15625 48.214844 364.351563 54.019531 C 360.535156 56.855469 357.410156 60.140625 355.542969 63.269531 C 354.28125 65.382813 353.703125 67.253906 353.8125 68.746094 C 352.453125 69.058594 350.617188 69.316406 348.269531 69.324219 C 348.855469 64.53125 349.25 59.714844 349.421875 54.886719 C 349.648438 48.605469 349.492188 42.308594 348.871094 36.0625 C 348.246094 29.8125 347.152344 23.613281 345.519531 17.5625 C 343.886719 11.515625 341.707031 5.617188 338.976563 0 C 341.511719 5.710938 343.476563 11.65625 344.894531 17.722656 C 346.308594 23.785156 347.179688 29.964844 347.585938 36.167969 C 347.988281 42.371094 347.929688 48.59375 347.492188 54.785156 C 347.058594 60.980469 346.25 67.140625 345.144531 73.246094 C 344.015625 79.488281 342.578125 85.671875 340.894531 91.789063 C 339.664063 91.398438 337.714844 90.5625 335.242188 88.800781 C 336.238281 85.050781 333.917969 78.386719 329.109375 72.148438 C 323.171875 64.445313 312.253906 62.746094 312.144531 62.730469 L 312.054688 62.71875 L 312.042969 62.8125 C 312.03125 62.921875 310.890625 73.910156 316.828125 81.617188 C 319.730469 85.382813 323.09375 88.433594 326.296875 90.214844 C 328.199219 91.265625 329.910156 91.800781 331.335938 91.800781 C 332.328125 91.800781 333.183594 91.539063 333.863281 91.015625 C 334.171875 90.777344 334.433594 90.492188 334.652344 90.160156 C 337.171875 91.921875 339.183594 92.777344 340.507813 93.191406 C 338.996094 98.5625 337.296875 103.886719 335.453125 109.152344 C 331.34375 120.867188 326.496094 132.3125 321.203125 143.554688 C 318.871094 148.507813 316.453125 153.417969 313.992188 158.328125 C 313.945313 158.203125 313.898438 158.078125 313.847656 157.953125 C 313.730469 157.652344 313.621094 157.347656 313.496094 157.050781 C 313.246094 156.457031 313.003906 155.859375 312.722656 155.273438 C 312.460938 154.683594 312.15625 154.113281 311.863281 153.535156 C 311.550781 152.96875 311.242188 152.398438 310.898438 151.847656 C 310.222656 150.738281 309.484375 149.667969 308.675781 148.652344 C 307.863281 147.636719 306.984375 146.679688 306.054688 145.785156 C 304.191406 143.992188 302.117188 142.480469 299.996094 141.121094 C 298.9375 140.441406 297.867188 139.792969 296.804688 139.152344 L 295.214844 138.1875 C 294.695313 137.863281 294.179688 137.535156 293.671875 137.195313 C 292.65625 136.511719 291.671875 135.785156 290.734375 135.007813 C 289.792969 134.226563 288.898438 133.390625 288.089844 132.484375 C 287.28125 131.578125 286.539063 130.605469 285.945313 129.546875 C 285.636719 129.023438 285.386719 128.472656 285.152344 127.910156 C 285.054688 127.625 284.9375 127.34375 284.859375 127.050781 C 284.816406 126.902344 284.769531 126.757813 284.730469 126.609375 L 284.628906 126.164063 C 284.507813 125.570313 284.421875 124.964844 284.414063 124.351563 C 284.386719 123.742188 284.4375 123.128906 284.519531 122.519531 C 284.703125 121.304688 285.09375 120.113281 285.628906 118.992188 C 285.027344 120.078125 284.5625 121.25 284.296875 122.480469 C 284.171875 123.09375 284.082031 123.722656 284.074219 124.351563 C 284.046875 124.984375 284.09375 125.617188 284.183594 126.246094 L 284.261719 126.71875 C 284.289063 126.871094 284.328125 127.027344 284.367188 127.183594 C 284.429688 127.492188 284.535156 127.792969 284.621094 128.101563 C 284.828125 128.699219 285.054688 129.300781 285.34375 129.863281 C 285.894531 131.011719 286.613281 132.074219 287.394531 133.070313 C 288.183594 134.066406 289.058594 134.988281 289.980469 135.855469 C 290.902344 136.722656 291.871094 137.53125 292.878906 138.300781 C 293.378906 138.683594 293.890625 139.054688 294.40625 139.417969 L 295.941406 140.484375 C 296.964844 141.1875 297.984375 141.890625 298.972656 142.617188 C 300.953125 144.0625 302.820313 145.613281 304.4375 147.375 C 305.246094 148.253906 305.996094 149.179688 306.683594 150.148438 C 307.367188 151.121094 307.980469 152.140625 308.535156 153.191406 C 308.820313 153.714844 309.066406 154.253906 309.324219 154.789063 C 309.558594 155.339844 309.808594 155.878906 310.015625 156.4375 C 310.242188 156.988281 310.433594 157.558594 310.632813 158.121094 C 310.730469 158.402344 310.8125 158.691406 310.90625 158.976563 C 310.996094 159.261719 311.089844 159.546875 311.164063 159.835938 C 311.425781 160.742188 311.65625 161.65625 311.867188 162.578125 C 310.839844 164.625 309.8125 166.683594 308.820313 168.796875 C 307.460938 171.667969 306.179688 174.578125 304.980469 177.527344 C 303.78125 180.476563 302.660156 183.453125 301.613281 186.460938 C 300.578125 189.472656 299.621094 192.507813 298.726563 195.566406 C 298.230469 197.304688 297.757813 199.046875 297.308594 200.796875 C 293.238281 201.273438 289.121094 201.292969 285.085938 200.707031 C 282.59375 200.347656 280.132813 199.765625 277.742188 198.96875 C 275.351563 198.164063 273.035156 197.144531 270.820313 195.933594 C 268.601563 194.71875 266.488281 193.3125 264.488281 191.75 C 262.496094 190.175781 260.625 188.445313 258.882813 186.589844 C 258.019531 185.652344 257.179688 184.695313 256.378906 183.703125 C 255.585938 182.707031 254.816406 181.691406 254.09375 180.640625 L 253.015625 179.027344 C 252.648438 178.472656 252.273438 177.929688 251.898438 177.382813 C 251.152344 176.296875 250.394531 175.226563 249.644531 174.15625 C 246.640625 169.882813 243.761719 165.578125 241.382813 161.003906 C 238.988281 156.445313 237.121094 151.621094 235.984375 146.621094 C 235.417969 144.121094 235.035156 141.582031 234.847656 139.023438 C 234.65625 136.464844 234.671875 133.898438 234.847656 131.324219 C 235.195313 126.167969 236.023438 121.03125 237.628906 116.148438 C 237.839844 115.539063 238.039063 114.929688 238.273438 114.335938 C 238.496094 113.730469 238.746094 113.144531 238.996094 112.550781 C 239.511719 111.378906 240.066406 110.226563 240.695313 109.113281 C 241.953125 106.894531 243.453125 104.804688 245.234375 102.996094 C 247.015625 101.199219 249.070313 99.65625 251.378906 98.664063 C 252.570313 98.152344 253.789063 97.632813 254.988281 97.078125 C 256.183594 96.53125 257.371094 95.957031 258.546875 95.359375 C 263.246094 92.960938 267.746094 90.171875 271.9375 86.964844 C 272.988281 86.167969 274.007813 85.328125 275.015625 84.480469 C 276.015625 83.617188 277.003906 82.75 277.957031 81.835938 C 278.921875 80.933594 279.84375 79.992188 280.753906 79.035156 C 281.199219 78.550781 281.648438 78.070313 282.085938 77.574219 C 282.515625 77.074219 282.960938 76.589844 283.371094 76.074219 C 286.75 72.027344 289.636719 67.558594 291.832031 62.765625 C 294.039063 57.980469 295.5625 52.894531 296.398438 47.703125 C 297.25 42.511719 297.363281 37.226563 296.988281 32 C 296.789063 29.382813 296.4375 26.785156 295.996094 24.203125 L 295.636719 22.269531 C 295.515625 21.625 295.363281 20.988281 295.226563 20.347656 L 295.019531 19.390625 C 294.945313 19.070313 294.863281 18.753906 294.785156 18.433594 L 294.308594 16.527344 L 294.753906 18.441406 C 294.828125 18.761719 294.910156 19.078125 294.976563 19.398438 L 295.171875 20.359375 C 295.296875 21.003906 295.4375 21.640625 295.550781 22.285156 L 295.882813 24.222656 C 296.285156 26.804688 296.601563 29.40625 296.761719 32.015625 C 297.0625 37.230469 296.871094 42.488281 295.949219 47.628906 C 295.046875 52.765625 293.464844 57.78125 291.21875 62.476563 C 288.980469 67.179688 286.070313 71.546875 282.683594 75.488281 C 282.265625 75.988281 281.824219 76.464844 281.390625 76.949219 C 280.953125 77.433594 280.503906 77.898438 280.058594 78.371094 C 279.144531 79.300781 278.222656 80.214844 277.261719 81.089844 C 276.3125 81.976563 275.320313 82.820313 274.324219 83.65625 C 273.316406 84.476563 272.300781 85.289063 271.253906 86.058594 C 267.078125 89.160156 262.601563 91.847656 257.9375 94.144531 C 256.773438 94.714844 255.59375 95.265625 254.40625 95.789063 C 253.214844 96.316406 252.019531 96.808594 250.800781 97.308594 C 250.492188 97.433594 250.175781 97.582031 249.867188 97.726563 C 249.5625 97.878906 249.253906 98.03125 248.960938 98.199219 C 248.65625 98.359375 248.371094 98.539063 248.078125 98.714844 C 247.792969 98.902344 247.503906 99.078125 247.226563 99.277344 C 246.113281 100.054688 245.074219 100.929688 244.113281 101.875 C 242.1875 103.773438 240.578125 105.957031 239.222656 108.269531 C 238.542969 109.425781 237.945313 110.625 237.386719 111.839844 C 237.121094 112.453125 236.847656 113.066406 236.609375 113.6875 C 236.355469 114.308594 236.140625 114.9375 235.914063 115.566406 C 234.171875 120.617188 233.246094 125.890625 232.8125 131.171875 C 232.59375 133.816406 232.539063 136.5 232.699219 139.167969 C 232.855469 141.835938 233.21875 144.492188 233.769531 147.105469 C 234.878906 152.339844 236.757813 157.394531 239.164063 162.140625 C 241.550781 166.902344 244.449219 171.363281 247.40625 175.699219 C 248.140625 176.785156 248.882813 177.863281 249.601563 178.941406 C 249.964844 179.484375 250.320313 180.023438 250.671875 180.566406 L 251.75 182.230469 C 252.496094 183.351563 253.292969 184.4375 254.117188 185.496094 C 254.945313 186.558594 255.816406 187.582031 256.714844 188.585938 C 258.527344 190.570313 260.484375 192.433594 262.578125 194.140625 C 264.679688 195.832031 266.917969 197.367188 269.277344 198.703125 C 271.632813 200.039063 274.113281 201.175781 276.675781 202.074219 C 279.242188 202.972656 281.890625 203.640625 284.574219 204.066406 C 287.257813 204.496094 289.976563 204.679688 292.6875 204.648438 C 293.925781 204.636719 295.164063 204.574219 296.394531 204.476563 C 295.628906 207.683594 294.949219 210.910156 294.355469 214.152344 C 293.199219 220.410156 292.304688 226.71875 291.699219 233.050781 C 291.089844 239.382813 290.734375 245.734375 290.605469 252.085938 C 290.527344 255.769531 290.53125 259.449219 290.597656 263.128906 C 290.328125 263.066406 290.0625 263.003906 289.796875 262.9375 C 287.515625 262.375 285.238281 261.6875 282.988281 260.886719 C 280.742188 260.066406 278.511719 259.164063 276.320313 258.15625 C 274.132813 257.128906 271.960938 256.054688 269.84375 254.851563 C 268.773438 254.273438 267.734375 253.636719 266.683594 253.015625 C 266.15625 252.714844 265.648438 252.375 265.128906 252.050781 L 263.585938 251.066406 L 262.0625 250.039063 C 261.554688 249.699219 261.042969 249.359375 260.546875 248.996094 C 259.554688 248.277344 258.542969 247.585938 257.574219 246.828125 C 253.648438 243.871094 249.890625 240.660156 246.308594 237.242188 C 239.144531 230.40625 232.695313 222.753906 226.894531 214.601563 L 224.761719 211.511719 L 224.226563 210.738281 L 223.714844 209.953125 L 221.660156 206.804688 L 220.671875 205.203125 L 219.679688 203.601563 L 219.183594 202.804688 L 218.695313 201.984375 L 214.789063 195.429688 C 213.488281 193.246094 212.214844 191.042969 210.921875 188.847656 C 200.640625 171.277344 190.695313 153.476563 180.703125 135.695313 C 179.105469 132.851563 177.503906 130.007813 175.898438 127.167969 C 178.335938 125.0625 180.453125 122.621094 182.164063 119.960938 C 183.902344 117.257813 185.21875 114.347656 186.160156 111.355469 C 186.398438 110.609375 186.601563 109.855469 186.796875 109.097656 C 186.980469 108.339844 187.148438 107.578125 187.289063 106.808594 C 187.425781 106.039063 187.542969 105.269531 187.632813 104.488281 C 187.679688 104.101563 187.714844 103.707031 187.746094 103.308594 C 187.761719 103.109375 187.777344 102.910156 187.785156 102.703125 L 187.796875 102.382813 L 187.800781 102.296875 C 187.800781 102.285156 187.800781 102.265625 187.796875 102.324219 L 187.800781 102.203125 C 187.890625 100.804688 188.023438 99.367188 188.171875 97.945313 C 188.324219 96.519531 188.496094 95.097656 188.695313 93.675781 C 189.09375 90.828125 189.582031 87.996094 190.1875 85.191406 C 190.796875 82.386719 191.519531 79.601563 192.433594 76.882813 C 192.890625 75.523438 193.394531 74.183594 193.96875 72.871094 C 194.535156 71.554688 195.175781 70.273438 195.910156 69.042969 C 196.277344 68.429688 196.664063 67.824219 197.089844 67.25 C 197.511719 66.671875 197.960938 66.109375 198.449219 65.585938 C 199.421875 64.527344 200.554688 63.609375 201.851563 62.941406 C 200.492188 63.472656 199.238281 64.28125 198.136719 65.261719 C 197.578125 65.742188 197.058594 66.269531 196.5625 66.820313 C 196.0625 67.367188 195.601563 67.945313 195.15625 68.535156 C 194.269531 69.722656 193.476563 70.972656 192.75 72.261719 C 192.019531 73.550781 191.359375 74.871094 190.746094 76.21875 C 189.519531 78.90625 188.484375 81.675781 187.5625 84.476563 C 186.644531 87.28125 185.847656 90.121094 185.136719 92.984375 C 184.785156 94.417969 184.453125 95.855469 184.144531 97.300781 C 183.839844 98.75 183.550781 100.191406 183.300781 101.683594 L 183.277344 101.828125 L 183.257813 101.992188 L 183.25 102.042969 L 183.21875 102.265625 L 183.136719 102.742188 C 183.074219 103.066406 183.011719 103.394531 182.9375 103.722656 C 182.792969 104.375 182.621094 105.027344 182.433594 105.675781 C 182.242188 106.324219 182.027344 106.964844 181.804688 107.601563 C 181.566406 108.234375 181.328125 108.863281 181.054688 109.476563 C 179.988281 111.941406 178.625 114.25 176.988281 116.285156 C 175.609375 118.007813 174.03125 119.527344 172.308594 120.832031 C 170.078125 116.910156 167.84375 112.992188 165.578125 109.089844 L 163.660156 105.777344 L 161.714844 102.480469 L 159.765625 99.1875 L 157.78125 95.914063 C 155.152344 91.546875 152.402344 87.242188 149.585938 82.996094 C 152.214844 87.367188 154.765625 91.777344 157.195313 96.257813 L 159.027344 99.609375 L 160.824219 102.980469 L 162.621094 106.355469 L 164.390625 109.742188 C 169.101563 118.78125 173.703125 127.871094 178.304688 136.972656 C 186.179688 152.574219 194.027344 168.199219 202.105469 183.726563 C 200.816406 185.378906 199.40625 186.921875 197.871094 188.304688 C 195.839844 190.136719 193.582031 191.695313 191.140625 192.910156 C 188.695313 194.125 186.070313 194.988281 183.34375 195.527344 C 181.980469 195.796875 180.589844 195.964844 179.1875 196.074219 C 178.835938 196.09375 178.488281 196.132813 178.132813 196.140625 L 177.074219 196.175781 C 176.71875 196.183594 176.363281 196.179688 176.011719 196.179688 C 175.832031 196.179688 175.65625 196.183594 175.476563 196.179688 L 174.941406 196.160156 C 174.585938 196.144531 174.230469 196.140625 173.871094 196.117188 L 172.804688 196.046875 L 172.535156 196.03125 L 172.253906 196.007813 L 170.554688 195.867188 L 166.03125 195.5 C 163.023438 195.257813 160.039063 195.007813 157.136719 194.617188 C 154.226563 194.230469 151.4375 193.640625 148.875 192.597656 C 148.714844 192.53125 148.550781 192.472656 148.394531 192.40625 L 147.929688 192.179688 L 146.996094 191.730469 L 146.097656 191.210938 L 145.644531 190.949219 C 145.5 190.855469 145.359375 190.753906 145.214844 190.65625 L 144.347656 190.066406 C 144.0625 189.863281 143.792969 189.632813 143.515625 189.417969 L 143.097656 189.089844 C 142.957031 188.980469 142.816406 188.871094 142.6875 188.75 L 141.886719 188.03125 L 140.988281 187.230469 C 140.644531 186.941406 140.300781 186.675781 139.957031 186.441406 C 139.269531 185.964844 138.585938 185.542969 137.894531 185.15625 C 136.519531 184.375 135.132813 183.691406 133.738281 183.042969 C 130.945313 181.746094 128.128906 180.59375 125.296875 179.480469 C 119.628906 177.269531 113.910156 175.261719 108.171875 173.324219 C 102.433594 171.386719 96.671875 169.535156 90.894531 167.734375 C 85.117188 165.9375 79.328125 164.1875 73.519531 162.5 C 79.238281 164.476563 84.929688 166.511719 90.605469 168.59375 C 96.277344 170.679688 101.933594 172.8125 107.550781 175.027344 C 113.167969 177.242188 118.753906 179.527344 124.242188 181.988281 C 126.980469 183.222656 129.699219 184.5 132.328125 185.886719 C 133.640625 186.578125 134.933594 187.296875 136.148438 188.070313 C 136.761719 188.453125 137.34375 188.859375 137.878906 189.269531 C 138.148438 189.476563 138.394531 189.6875 138.617188 189.894531 L 139.371094 190.644531 L 140.222656 191.484375 C 140.359375 191.628906 140.511719 191.757813 140.664063 191.890625 L 141.117188 192.289063 C 141.421875 192.550781 141.71875 192.824219 142.035156 193.074219 L 143.007813 193.8125 C 143.171875 193.933594 143.328125 194.0625 143.496094 194.179688 L 144.011719 194.515625 L 145.042969 195.183594 L 146.121094 195.773438 L 146.664063 196.070313 C 146.851563 196.160156 147.039063 196.238281 147.222656 196.328125 L 148.34375 196.832031 C 148.722656 196.988281 149.105469 197.121094 149.484375 197.265625 C 150.246094 197.570313 151.015625 197.777344 151.789063 198.019531 L 152.078125 198.105469 L 152.363281 198.179688 L 152.941406 198.328125 L 154.101563 198.617188 C 154.867188 198.773438 155.636719 198.945313 156.402344 199.089844 C 159.46875 199.660156 162.496094 200.0625 165.503906 200.457031 L 169.996094 201.050781 L 171.117188 201.199219 L 171.679688 201.273438 L 171.960938 201.308594 L 172.257813 201.34375 L 173.441406 201.484375 C 173.839844 201.527344 174.238281 201.554688 174.636719 201.589844 L 175.234375 201.640625 C 175.433594 201.652344 175.632813 201.660156 175.835938 201.671875 C 176.234375 201.691406 176.636719 201.714844 177.035156 201.726563 L 178.242188 201.746094 C 178.644531 201.757813 179.050781 201.738281 179.453125 201.730469 C 181.070313 201.691406 182.695313 201.574219 184.3125 201.339844 C 187.546875 200.871094 190.761719 199.992188 193.808594 198.664063 C 196.851563 197.34375 199.710938 195.574219 202.277344 193.480469 C 203.449219 192.527344 204.5625 191.503906 205.613281 190.433594 C 205.800781 190.785156 205.984375 191.136719 206.167969 191.488281 C 207.363281 193.746094 208.542969 196.011719 209.753906 198.261719 L 213.378906 205.015625 L 213.835938 205.859375 L 215.253906 208.402344 L 216.203125 210.097656 L 217.191406 211.773438 L 218.183594 213.445313 L 218.675781 214.285156 L 219.191406 215.109375 L 221.261719 218.40625 C 226.898438 227.128906 233.28125 235.4375 240.546875 243.015625 C 244.175781 246.800781 248.023438 250.402344 252.101563 253.765625 C 253.105469 254.621094 254.160156 255.421875 255.195313 256.242188 C 255.714844 256.65625 256.246094 257.046875 256.78125 257.441406 L 258.378906 258.625 L 260.007813 259.769531 C 260.554688 260.144531 261.09375 260.535156 261.652344 260.894531 C 262.765625 261.621094 263.871094 262.367188 265.015625 263.054688 C 267.269531 264.472656 269.613281 265.769531 271.992188 267.011719 C 274.378906 268.242188 276.828125 269.367188 279.328125 270.40625 C 281.839844 271.425781 284.410156 272.335938 287.046875 273.113281 C 288.351563 273.496094 289.671875 273.84375 291.015625 274.152344 L 291.105469 275.886719 L 291.429688 280.632813 C 291.554688 282.214844 291.699219 283.792969 291.828125 285.371094 L 291.933594 286.558594 L 292.050781 287.730469 L 292.289063 290.078125 L 292.765625 294.777344 L 293.03125 297.160156 L 293.320313 299.539063 C 293.53125 301.183594 293.757813 302.824219 294.003906 304.464844 C 291.6875 304.054688 289.375 303.558594 287.074219 302.984375 C 282.15625 301.753906 277.289063 300.171875 272.503906 298.324219 C 267.71875 296.472656 263.011719 294.347656 258.414063 292.007813 L 257.550781 291.570313 L 256.695313 291.113281 L 254.984375 290.207031 L 253.289063 289.269531 C 252.726563 288.953125 252.160156 288.644531 251.605469 288.316406 L 249.933594 287.34375 L 249.035156 286.820313 C 248.730469 286.644531 248.421875 286.460938 248.117188 286.296875 C 247.503906 285.960938 246.894531 285.613281 246.28125 285.296875 L 245.363281 284.8125 L 244.441406 284.347656 C 241.984375 283.109375 239.511719 281.96875 237.019531 280.886719 C 234.53125 279.804688 232.027344 278.78125 229.503906 277.808594 C 226.980469 276.84375 224.441406 275.921875 221.890625 275.046875 C 219.339844 274.167969 216.769531 273.351563 214.1875 272.570313 C 209.019531 271.015625 203.792969 269.660156 198.496094 268.554688 C 193.199219 267.460938 187.835938 266.601563 182.394531 266.179688 C 181.710938 266.136719 181.035156 266.070313 180.351563 266.039063 L 178.300781 265.945313 L 176.242188 265.90625 L 175.253906 265.894531 C 174.9375 265.890625 174.617188 265.894531 174.296875 265.882813 C 171.742188 265.820313 169.164063 265.613281 166.589844 265.316406 C 161.4375 264.710938 156.300781 263.726563 151.226563 262.464844 C 146.152344 261.199219 141.140625 259.644531 136.226563 257.816406 C 131.3125 255.988281 126.496094 253.878906 121.828125 251.476563 C 117.160156 249.074219 112.644531 246.375 108.347656 243.347656 C 104.050781 240.316406 99.976563 236.964844 96.238281 233.253906 C 92.503906 229.542969 89.101563 225.480469 86.171875 221.085938 C 83.234375 216.695313 80.773438 211.972656 78.871094 207.015625 C 80.558594 212.046875 82.828125 216.894531 85.597656 221.449219 C 88.367188 226.007813 91.628906 230.269531 95.261719 234.199219 C 98.894531 238.125 102.890625 241.714844 107.136719 244.988281 C 111.378906 248.257813 115.871094 251.210938 120.53125 253.867188 C 125.191406 256.523438 130.019531 258.890625 134.972656 260.976563 C 139.921875 263.0625 144.988281 264.875 150.152344 266.402344 C 155.320313 267.917969 160.574219 269.167969 165.933594 270.03125 C 168.617188 270.457031 171.320313 270.792969 174.066406 270.976563 L 178.019531 271.207031 L 179.9375 271.378906 C 180.578125 271.433594 181.21875 271.523438 181.859375 271.59375 C 186.980469 272.210938 192.078125 273.246094 197.125 274.515625 C 202.171875 275.796875 207.164063 277.324219 212.09375 279.035156 C 214.558594 279.898438 217.007813 280.796875 219.4375 281.746094 C 221.867188 282.699219 224.28125 283.695313 226.671875 284.730469 C 229.058594 285.769531 231.421875 286.855469 233.753906 287.988281 C 236.085938 289.125 238.386719 290.308594 240.617188 291.554688 L 241.453125 292.023438 L 242.273438 292.5 C 242.828125 292.816406 243.355469 293.148438 243.894531 293.472656 C 244.164063 293.636719 244.417969 293.804688 244.683594 293.972656 L 245.484375 294.484375 L 247.207031 295.589844 C 247.777344 295.960938 248.359375 296.3125 248.941406 296.667969 L 250.6875 297.734375 L 252.449219 298.769531 L 253.328125 299.285156 L 254.222656 299.789063 C 258.96875 302.46875 263.851563 304.929688 268.875 307.121094 C 273.902344 309.316406 279.066406 311.246094 284.386719 312.820313 C 288.171875 313.941406 292.035156 314.878906 295.972656 315.582031 C 296.808594 319.691406 297.765625 323.785156 298.855469 327.847656 C 302.179688 340.265625 306.710938 352.417969 312.46875 364.007813 C 318.21875 375.59375 325.203125 386.609375 333.277344 396.789063 C 335.984375 400.199219 338.8125 403.511719 341.757813 406.726563 C 341.039063 406.765625 340.320313 406.800781 339.589844 406.847656 L 336.644531 407.03125 C 332.695313 407.300781 328.644531 407.625 324.464844 408.242188 L 322.898438 408.480469 C 322.378906 408.558594 321.847656 408.671875 321.324219 408.765625 L 319.746094 409.0625 C 319.222656 409.164063 318.695313 409.300781 318.171875 409.414063 L 316.601563 409.78125 C 316.078125 409.902344 315.566406 410.058594 315.046875 410.195313 L 313.496094 410.625 C 313.238281 410.695313 312.984375 410.773438 312.734375 410.855469 L 311.976563 411.101563 C 310.972656 411.425781 309.949219 411.734375 308.980469 412.101563 L 307.507813 412.636719 C 307.019531 412.816406 306.527344 412.992188 306.054688 413.1875 L 303.199219 414.328125 L 300.421875 415.523438 C 299.472656 415.929688 298.628906 416.3125 297.746094 416.703125 L 295.132813 417.859375 L 292.527344 418.996094 C 291.660156 419.371094 290.789063 419.746094 289.921875 420.113281 C 288.066406 420.898438 286.210938 421.667969 284.347656 422.417969 C 283.074219 421.101563 281.703125 419.886719 280.292969 418.769531 C 278.789063 417.578125 277.222656 416.503906 275.640625 415.546875 C 274.054688 414.578125 272.453125 413.707031 270.859375 412.902344 C 267.671875 411.300781 264.519531 409.933594 261.476563 408.574219 C 259.945313 407.898438 258.445313 407.222656 256.972656 406.527344 C 255.492188 405.839844 254.046875 405.125 252.625 404.382813 C 251.195313 403.652344 249.816406 402.863281 248.441406 402.0625 L 247.429688 401.445313 L 246.921875 401.136719 L 246.421875 400.8125 L 245.425781 400.171875 L 244.445313 399.503906 C 243.789063 399.070313 243.160156 398.59375 242.515625 398.136719 C 241.871094 397.660156 241.230469 397.152344 240.585938 396.660156 L 239.621094 395.917969 L 239.136719 395.546875 L 238.664063 395.15625 L 236.765625 393.605469 C 236.128906 393.097656 235.511719 392.558594 234.886719 392.023438 L 233.019531 390.414063 L 231.175781 388.765625 C 230.558594 388.214844 229.941406 387.667969 229.335938 387.097656 C 228.117188 385.972656 226.898438 384.851563 225.691406 383.699219 L 223.878906 381.980469 L 222.066406 380.238281 C 217.242188 375.597656 212.414063 370.835938 207.277344 366.261719 C 206.632813 365.691406 205.96875 365.132813 205.316406 364.570313 L 204.335938 363.726563 C 204.003906 363.445313 203.660156 363.175781 203.324219 362.898438 C 202.644531 362.355469 201.976563 361.800781 201.289063 361.261719 L 199.179688 359.679688 L 198.652344 359.285156 L 198.105469 358.910156 L 195.902344 357.410156 L 194.839844 356.722656 C 193.421875 355.8125 191.996094 354.898438 190.550781 353.992188 C 187.667969 352.179688 184.71875 350.402344 181.671875 348.757813 C 178.621094 347.113281 175.484375 345.585938 172.242188 344.277344 C 169.011719 342.953125 165.671875 341.863281 162.28125 340.992188 C 158.886719 340.128906 155.429688 339.519531 151.957031 339.144531 C 148.488281 338.765625 144.996094 338.65625 141.53125 338.742188 L 140.230469 338.78125 C 139.796875 338.792969 139.367188 338.828125 138.933594 338.851563 L 137.636719 338.925781 L 136.386719 339.003906 L 134.90625 339.101563 C 134.710938 337.199219 134.382813 335.671875 134.023438 334.472656 C 134.195313 334.375 134.355469 334.265625 134.503906 334.140625 C 137.644531 331.488281 135.039063 323.210938 128.691406 315.695313 C 122.414063 308.261719 111.65625 306.871094 111.546875 306.855469 L 111.449219 306.84375 L 111.445313 306.941406 C 111.4375 307.050781 111.011719 317.890625 117.289063 325.324219 C 122.296875 331.253906 128.160156 334.96875 131.957031 334.96875 C 132.195313 334.96875 132.421875 334.953125 132.640625 334.921875 C 132.964844 336.019531 133.269531 337.433594 133.453125 339.195313 C 133.183594 339.210938 132.910156 339.230469 132.640625 339.242188 L 131.390625 339.304688 L 128.894531 339.421875 C 128.058594 339.464844 127.230469 339.476563 126.394531 339.503906 C 125.5625 339.523438 124.730469 339.558594 123.902344 339.570313 L 121.40625 339.59375 C 120.992188 339.597656 120.574219 339.605469 120.160156 339.601563 L 118.914063 339.585938 C 118.085938 339.574219 117.253906 339.574219 116.425781 339.550781 L 113.9375 339.464844 C 113.523438 339.453125 113.113281 339.429688 112.699219 339.402344 L 111.464844 339.328125 C 108.164063 339.113281 104.878906 338.777344 101.675781 338.183594 L 100.480469 337.949219 L 100.179688 337.890625 L 99.886719 337.820313 L 99.296875 337.679688 C 98.902344 337.582031 98.507813 337.496094 98.121094 337.394531 L 96.96875 337.058594 C 96.777344 337 96.578125 336.953125 96.394531 336.886719 L 95.832031 336.6875 L 95.273438 336.492188 L 94.992188 336.394531 C 94.902344 336.359375 94.8125 336.320313 94.722656 336.28125 L 93.648438 335.828125 L 92.628906 335.308594 C 92.457031 335.226563 92.296875 335.125 92.125 335.027344 L 91.609375 334.714844 C 91.265625 334.503906 90.917969 334.28125 90.570313 334.058594 C 89.875 333.609375 89.179688 333.152344 88.488281 332.6875 C 87.097656 331.761719 85.722656 330.808594 84.351563 329.847656 C 81.613281 327.925781 78.902344 325.957031 76.21875 323.949219 C 70.84375 319.933594 65.578125 315.773438 60.4375 311.464844 C 57.871094 309.308594 55.332031 307.113281 52.835938 304.871094 C 50.335938 302.632813 47.878906 300.347656 45.472656 298.011719 C 40.660156 293.335938 36.039063 288.453125 31.800781 283.246094 C 30.746094 281.941406 29.710938 280.621094 28.714844 279.273438 C 27.722656 277.917969 26.742188 276.554688 25.824219 275.148438 C 23.976563 272.347656 22.300781 269.421875 20.914063 266.355469 C 22.195313 269.46875 23.777344 272.453125 25.539063 275.328125 C 26.410156 276.773438 27.347656 278.175781 28.296875 279.570313 C 29.257813 280.957031 30.25 282.320313 31.265625 283.667969 C 35.347656 289.042969 39.828125 294.109375 44.507813 298.96875 C 46.847656 301.402344 49.242188 303.78125 51.679688 306.117188 C 54.113281 308.457031 56.589844 310.746094 59.101563 313.003906 C 64.125 317.511719 69.28125 321.875 74.550781 326.101563 C 77.1875 328.210938 79.851563 330.289063 82.554688 332.324219 C 83.90625 333.339844 85.265625 334.347656 86.644531 335.339844 C 87.332031 335.835938 88.027344 336.328125 88.730469 336.8125 C 89.082031 337.058594 89.433594 337.300781 89.796875 337.539063 L 90.347656 337.902344 C 90.539063 338.019531 90.734375 338.148438 90.933594 338.257813 C 91.335938 338.480469 91.738281 338.707031 92.144531 338.925781 L 93.375 339.496094 C 93.476563 339.539063 93.578125 339.59375 93.679688 339.632813 L 93.992188 339.757813 L 94.617188 340 L 95.238281 340.242188 C 95.449219 340.324219 95.65625 340.382813 95.867188 340.453125 L 97.125 340.863281 C 97.542969 340.992188 97.96875 341.101563 98.390625 341.21875 L 99.023438 341.394531 L 99.335938 341.480469 L 99.65625 341.554688 L 100.925781 341.84375 C 104.316406 342.59375 107.726563 343.058594 111.132813 343.394531 L 112.410156 343.515625 C 112.835938 343.558594 113.261719 343.59375 113.6875 343.621094 L 116.242188 343.796875 C 117.097656 343.851563 117.945313 343.878906 118.796875 343.921875 L 120.074219 343.976563 C 120.5 343.996094 120.925781 344 121.351563 344.011719 L 123.902344 344.074219 C 124.753906 344.09375 125.605469 344.085938 126.453125 344.09375 C 127.304688 344.09375 128.15625 344.109375 129.003906 344.09375 L 131.550781 344.058594 L 132.824219 344.039063 C 133.246094 344.035156 133.671875 344.015625 134.097656 344.007813 L 136.640625 343.925781 L 137.90625 343.890625 L 139.132813 343.859375 C 139.539063 343.851563 139.949219 343.835938 140.355469 343.835938 L 141.578125 343.839844 C 144.839844 343.867188 148.089844 344.082031 151.292969 344.542969 C 153.734375 344.890625 156.152344 345.363281 158.535156 345.964844 C 157.976563 347.082031 157.105469 348.511719 155.753906 350.183594 C 152.070313 348.957031 145.28125 350.871094 138.765625 355.296875 C 130.714844 360.757813 128.363281 371.550781 128.339844 371.660156 L 128.320313 371.753906 L 128.414063 371.769531 C 128.453125 371.777344 130.21875 372.066406 132.835938 372.066406 C 136.769531 372.066406 142.636719 371.40625 147.472656 368.125 C 155.613281 362.601563 160.28125 355.230469 157.882813 351.691406 C 157.664063 351.367188 157.394531 351.089844 157.078125 350.851563 C 158.484375 349.074219 159.386719 347.542969 159.960938 346.34375 C 160.230469 346.417969 160.496094 346.492188 160.765625 346.566406 C 163.863281 347.480469 166.902344 348.585938 169.851563 349.910156 C 172.808594 351.222656 175.6875 352.738281 178.507813 354.386719 C 181.328125 356.035156 184.089844 357.824219 186.839844 359.6875 C 188.21875 360.617188 189.59375 361.566406 190.976563 362.519531 L 192.003906 363.238281 L 192.96875 363.941406 L 193.929688 364.648438 L 194.410156 365 L 194.878906 365.378906 L 196.761719 366.890625 C 197.378906 367.410156 197.988281 367.953125 198.601563 368.480469 C 198.910156 368.746094 199.21875 369.007813 199.519531 369.28125 L 200.425781 370.113281 C 201.027344 370.671875 201.632813 371.214844 202.230469 371.78125 C 206.996094 376.320313 211.601563 381.171875 216.3125 386.019531 L 218.078125 387.839844 L 219.867188 389.652344 C 221.054688 390.867188 222.273438 392.0625 223.484375 393.261719 C 224.089844 393.867188 224.710938 394.457031 225.328125 395.050781 L 227.1875 396.828125 L 229.089844 398.578125 C 229.722656 399.160156 230.351563 399.746094 231.007813 400.3125 L 232.964844 402.023438 L 233.453125 402.449219 L 233.953125 402.867188 L 234.960938 403.695313 C 235.636719 404.25 236.296875 404.804688 236.988281 405.355469 C 237.695313 405.898438 238.394531 406.460938 239.121094 406.980469 L 240.199219 407.769531 L 241.300781 408.53125 L 241.851563 408.910156 L 242.40625 409.28125 L 243.523438 410.011719 C 245.027344 410.960938 246.539063 411.890625 248.078125 412.746094 C 249.613281 413.609375 251.15625 414.4375 252.703125 415.222656 C 254.246094 416.015625 255.789063 416.773438 257.3125 417.511719 C 260.367188 418.996094 263.34375 420.414063 266.121094 421.929688 C 268.726563 423.367188 271.152344 424.886719 273.261719 426.628906 C 271.796875 427.152344 270.328125 427.664063 268.855469 428.160156 C 254.640625 432.921875 240.015625 436.40625 225.183594 437.960938 L 222.402344 438.214844 L 221.011719 438.339844 L 219.621094 438.429688 L 216.832031 438.613281 L 214.042969 438.722656 C 213.578125 438.738281 213.113281 438.765625 212.648438 438.773438 L 211.253906 438.789063 C 210.566406 438.796875 209.878906 438.808594 209.195313 438.8125 C 201.804688 438.070313 194.441406 437.144531 187.140625 435.910156 C 177.507813 434.285156 167.988281 432.089844 158.765625 429.011719 L 155.3125 427.847656 L 151.90625 426.550781 L 150.203125 425.898438 C 149.917969 425.796875 149.644531 425.667969 149.363281 425.550781 L 148.523438 425.195313 L 145.171875 423.761719 C 144.0625 423.257813 142.96875 422.730469 141.863281 422.21875 L 140.214844 421.4375 L 138.582031 420.609375 L 136.953125 419.777344 C 136.410156 419.496094 135.863281 419.234375 135.328125 418.933594 L 132.105469 417.179688 C 127.824219 414.796875 123.589844 412.289063 119.347656 409.742188 C 118.28125 409.113281 117.242188 408.464844 116.1875 407.828125 C 115.136719 407.183594 114.085938 406.554688 113.035156 405.902344 L 106.753906 401.980469 C 90.03125 391.445313 73.410156 380.703125 56.804688 369.953125 C 40.203125 359.195313 23.628906 348.394531 7.070313 337.5625 C 23.289063 348.894531 39.527344 360.199219 55.796875 371.460938 C 72.070313 382.714844 88.351563 393.957031 104.777344 405.023438 L 110.960938 409.148438 C 111.992188 409.832031 113.039063 410.507813 114.078125 411.1875 C 115.121094 411.859375 116.160156 412.550781 117.203125 413.214844 C 121.359375 415.886719 125.5625 418.550781 129.847656 421.109375 L 133.085938 423.003906 C 133.621094 423.324219 134.179688 423.613281 134.726563 423.917969 L 136.371094 424.824219 L 138.023438 425.726563 L 139.703125 426.582031 C 140.824219 427.148438 141.9375 427.726563 143.066406 428.28125 L 145.269531 429.304688 C 141.746094 428.785156 138.160156 428.417969 134.546875 428.359375 C 130.503906 428.289063 126.453125 428.566406 122.484375 429.167969 C 118.519531 429.761719 114.636719 430.664063 110.84375 431.753906 C 107.050781 432.84375 103.339844 434.117188 99.679688 435.488281 L 96.949219 436.539063 C 96.042969 436.898438 95.144531 437.273438 94.242188 437.636719 L 92.890625 438.1875 L 91.550781 438.761719 L 88.875 439.910156 C 81.875 442.964844 74.738281 445.71875 67.492188 448.195313 L 64.769531 449.097656 L 63.40625 449.550781 L 62.035156 449.984375 L 59.292969 450.84375 L 56.539063 451.664063 L 55.164063 452.074219 L 53.78125 452.464844 L 51.011719 453.242188 C 49.160156 453.734375 47.308594 454.238281 45.449219 454.699219 C 41.726563 455.636719 37.988281 456.507813 34.230469 457.289063 C 30.472656 458.078125 26.699219 458.796875 22.910156 459.429688 C 19.117188 460.066406 15.3125 460.617188 11.496094 461.085938 C 7.675781 461.539063 3.847656 461.933594 0 462.125 C 3.851563 462.121094 7.703125 461.914063 11.550781 461.648438 C 15.394531 461.371094 19.234375 461.003906 23.066406 460.550781 C 26.902344 460.101563 30.722656 459.570313 34.539063 458.960938 C 38.355469 458.359375 42.15625 457.671875 45.949219 456.910156 C 47.84375 456.535156 49.734375 456.121094 51.625 455.714844 L 54.453125 455.070313 L 55.867188 454.746094 L 57.277344 454.398438 L 60.09375 453.707031 L 62.90625 452.976563 L 64.308594 452.605469 L 65.707031 452.21875 L 68.507813 451.441406 C 75.953125 449.296875 83.324219 446.859375 90.589844 444.105469 L 93.273438 443.109375 L 94.613281 442.609375 L 95.960938 442.136719 C 96.863281 441.824219 97.757813 441.5 98.660156 441.195313 L 101.363281 440.304688 C 104.980469 439.148438 108.617188 438.09375 112.269531 437.238281 C 115.925781 436.378906 119.601563 435.71875 123.269531 435.347656 C 126.945313 434.980469 130.609375 434.910156 134.261719 435.152344 C 134.714844 435.167969 135.171875 435.226563 135.628906 435.261719 C 136.085938 435.308594 136.539063 435.339844 136.996094 435.390625 L 138.363281 435.5625 L 139.046875 435.644531 L 139.726563 435.75 L 141.09375 435.960938 C 141.550781 436.035156 142.003906 436.121094 142.460938 436.203125 C 143.371094 436.355469 144.285156 436.554688 145.195313 436.738281 C 148.847656 437.496094 152.519531 438.460938 156.222656 439.4375 C 159.925781 440.421875 163.664063 441.433594 167.4375 442.390625 C 171.207031 443.347656 175.007813 444.25 178.828125 445.082031 C 182.65625 445.90625 186.496094 446.660156 190.359375 447.324219 L 193.3125 447.789063 L 194.789063 448.023438 L 196.269531 448.207031 L 199.238281 448.578125 L 202.210938 448.863281 L 203.699219 449.003906 C 204.195313 449.042969 204.691406 449.070313 205.1875 449.105469 L 208.171875 449.296875 C 209.164063 449.34375 210.160156 449.371094 211.152344 449.410156 L 212.644531 449.464844 C 213.144531 449.480469 213.640625 449.480469 214.136719 449.484375 L 217.121094 449.515625 L 220.105469 449.46875 L 221.597656 449.441406 L 223.089844 449.382813 L 226.070313 449.253906 C 241.953125 448.378906 257.640625 445.433594 272.855469 441.15625 C 280.460938 439.007813 287.964844 436.523438 295.332031 433.8125 C 296.253906 433.476563 297.175781 433.132813 298.089844 432.789063 L 300.832031 431.746094 L 303.558594 430.699219 C 304.453125 430.351563 305.378906 429.988281 306.222656 429.679688 L 308.796875 428.714844 L 311.355469 427.835938 C 311.78125 427.683594 312.203125 427.558594 312.621094 427.429688 L 313.890625 427.039063 C 314.734375 426.761719 315.570313 426.5625 316.40625 426.332031 C 319.75 425.453125 323.046875 424.878906 326.515625 424.542969 C 329.976563 424.203125 333.621094 424.082031 337.359375 424.011719 L 340.1875 423.976563 C 341.125 423.960938 342.089844 423.960938 343.039063 423.953125 L 348.792969 423.929688 L 354.585938 423.90625 L 359.742188 423.867188 C 360.035156 424.109375 360.324219 424.351563 360.613281 424.589844 C 365.667969 428.730469 370.949219 432.605469 376.511719 436.160156 C 379.300781 437.9375 382.136719 439.632813 385.160156 441.234375 C 385.539063 441.4375 385.925781 441.636719 386.316406 441.835938 C 386.714844 442.035156 387.105469 442.234375 387.558594 442.449219 L 389.214844 443.347656 C 390.519531 444.066406 391.839844 444.808594 393.148438 445.566406 C 398.402344 448.59375 403.59375 451.804688 408.699219 455.136719 C 413.800781 458.46875 418.816406 461.933594 423.726563 465.527344 C 433.539063 472.714844 442.953125 480.394531 451.695313 488.652344 C 456.0625 492.777344 460.265625 497.042969 464.238281 501.464844 C 465.398438 502.757813 466.535156 504.0625 467.65625 505.382813 C 466.554688 504.800781 465.449219 504.234375 464.332031 503.679688 C 461.0625 502.0625 457.746094 500.554688 454.375 499.195313 C 451.011719 497.832031 447.605469 496.589844 444.175781 495.457031 C 440.746094 494.324219 437.285156 493.308594 433.804688 492.40625 C 430.320313 491.5 426.820313 490.703125 423.304688 490.003906 C 416.273438 488.609375 409.1875 487.613281 402.082031 486.984375 C 394.972656 486.371094 387.855469 486.097656 380.683594 486.296875 C 379.78125 486.324219 378.882813 486.355469 377.972656 486.40625 C 377.519531 486.425781 377.0625 486.453125 376.601563 486.484375 L 375.890625 486.535156 C 375.769531 486.546875 375.652344 486.554688 375.523438 486.566406 L 375.136719 486.609375 C 374.878906 486.640625 374.609375 486.664063 374.371094 486.699219 L 373.667969 486.800781 C 373.195313 486.863281 372.75 486.941406 372.304688 487.015625 L 371.632813 487.125 L 369.664063 487.476563 C 366.1875 488.121094 362.773438 488.804688 359.355469 489.492188 C 352.53125 490.871094 345.726563 492.265625 338.917969 493.605469 C 332.113281 494.945313 325.300781 496.242188 318.480469 497.421875 C 315.074219 498.011719 311.660156 498.574219 308.246094 499.078125 C 304.835938 499.582031 301.421875 500.039063 298.015625 500.382813 C 297.164063 500.464844 296.3125 500.558594 295.464844 500.617188 L 294.191406 500.714844 C 293.765625 500.746094 293.347656 500.761719 292.921875 500.785156 C 292.503906 500.804688 292.078125 500.835938 291.660156 500.84375 L 290.40625 500.871094 C 289.570313 500.890625 288.734375 500.867188 287.890625 500.839844 C 284.515625 500.714844 281.097656 500.339844 277.675781 499.898438 C 270.828125 499.003906 263.964844 497.828125 257.054688 496.871094 C 253.601563 496.394531 250.132813 495.964844 246.648438 495.648438 C 243.167969 495.332031 239.671875 495.128906 236.167969 495.144531 C 232.671875 495.160156 229.160156 495.390625 225.71875 496.046875 C 223.996094 496.367188 222.296875 496.8125 220.652344 497.402344 C 219.003906 497.980469 217.421875 498.742188 215.945313 499.65625 C 217.472656 498.824219 219.078125 498.15625 220.742188 497.671875 C 222.398438 497.175781 224.097656 496.832031 225.808594 496.605469 C 229.230469 496.140625 232.695313 496.105469 236.144531 496.277344 C 239.59375 496.449219 243.03125 496.839844 246.449219 497.335938 C 249.871094 497.835938 253.28125 498.449219 256.683594 499.109375 C 263.488281 500.429688 270.261719 501.972656 277.148438 503.257813 C 280.59375 503.890625 284.070313 504.46875 287.632813 504.796875 C 288.527344 504.875 289.425781 504.949219 290.328125 504.976563 L 291.679688 505.023438 C 292.132813 505.039063 292.574219 505.027344 293.019531 505.035156 C 293.46875 505.03125 293.917969 505.039063 294.359375 505.03125 L 295.691406 505 C 296.578125 504.988281 297.460938 504.941406 298.34375 504.90625 C 301.871094 504.742188 305.371094 504.460938 308.859375 504.140625 C 312.347656 503.816406 315.824219 503.4375 319.296875 503.027344 C 326.234375 502.214844 333.148438 501.28125 340.050781 500.308594 C 346.953125 499.335938 353.84375 498.308594 360.710938 497.308594 C 364.144531 496.808594 367.578125 496.3125 370.972656 495.871094 L 372.238281 495.71875 L 372.867188 495.640625 L 373.488281 495.574219 C 373.902344 495.527344 374.320313 495.480469 374.710938 495.449219 L 375.304688 495.394531 C 375.492188 495.378906 375.65625 495.375 375.835938 495.363281 L 376.09375 495.347656 C 376.183594 495.34375 376.285156 495.34375 376.378906 495.339844 L 376.972656 495.328125 C 377.378906 495.324219 377.789063 495.324219 378.203125 495.324219 C 379.03125 495.324219 379.871094 495.339844 380.710938 495.359375 C 387.4375 495.539063 394.222656 496.167969 400.921875 497.117188 C 407.628906 498.078125 414.277344 499.386719 420.804688 501.054688 C 421.15625 501.144531 421.507813 501.242188 421.859375 501.332031 C 421.628906 501.355469 421.394531 501.371094 421.160156 501.398438 C 417.3125 501.789063 413.488281 502.546875 409.789063 503.75 C 406.097656 504.953125 402.535156 506.609375 399.300781 508.757813 C 396.066406 510.894531 393.167969 513.507813 390.734375 516.449219 C 388.296875 519.394531 386.320313 522.660156 384.773438 526.070313 C 383.226563 529.484375 382.089844 533.035156 381.269531 536.632813 C 380.867188 538.433594 380.535156 540.246094 380.269531 542.058594 C 380.007813 543.878906 379.816406 545.699219 379.671875 547.523438 C 380.003906 545.726563 380.382813 543.9375 380.824219 542.171875 C 381.273438 540.40625 381.785156 538.65625 382.363281 536.941406 C 383.527344 533.507813 384.988281 530.191406 386.789063 527.109375 C 388.589844 524.03125 390.746094 521.191406 393.246094 518.746094 C 395.738281 516.296875 398.566406 514.246094 401.617188 512.65625 C 404.660156 511.054688 407.929688 509.9375 411.28125 509.214844 C 414.636719 508.496094 418.074219 508.179688 421.523438 508.1875 C 424.972656 508.195313 428.425781 508.515625 431.851563 509.082031 C 435.273438 509.648438 438.664063 510.460938 442 511.460938 C 448.675781 513.472656 455.144531 516.222656 461.296875 519.507813 C 467.453125 522.792969 473.308594 526.617188 478.71875 530.890625 C 479.738281 531.703125 480.746094 532.527344 481.734375 533.367188 C 483.984375 535.585938 486.144531 537.886719 488.195313 540.273438 C 488.710938 540.890625 489.21875 541.519531 489.734375 542.136719 C 489.988281 542.453125 490.25 542.753906 490.496094 543.074219 L 491.230469 544.035156 L 491.96875 544.988281 L 492.335938 545.46875 C 492.457031 545.628906 492.574219 545.792969 492.691406 545.957031 L 494.097656 547.914063 C 494.339844 548.238281 494.554688 548.578125 494.78125 548.910156 L 495.453125 549.914063 L 496.121094 550.914063 C 496.34375 551.25 496.546875 551.597656 496.761719 551.9375 L 498.035156 553.980469 L 499.238281 556.070313 C 499.4375 556.417969 499.644531 556.761719 499.835938 557.117188 L 500.398438 558.179688 C 500.683594 558.71875 500.96875 559.25 501.25 559.789063 C 501.332031 560.117188 501.40625 560.445313 501.46875 560.769531 L 501.714844 560.699219 L 502.582031 562.476563 C 502.753906 562.839844 502.945313 563.191406 503.105469 563.5625 L 503.597656 564.664063 C 503.921875 565.398438 504.261719 566.125 504.578125 566.867188 L 504.816406 567.460938 C 505.429688 569.65625 505.996094 571.871094 506.515625 574.105469 C 508.210938 581.386719 509.429688 588.847656 510.304688 596.410156 C 510.738281 600.175781 511.085938 603.96875 511.363281 607.78125 C 509.640625 606.148438 507.894531 604.519531 506.105469 602.90625 C 501.894531 599.113281 497.441406 595.386719 492.609375 591.992188 C 487.789063 588.59375 482.589844 585.566406 477.171875 583.105469 C 471.753906 580.632813 466.148438 578.722656 460.535156 577.230469 L 458.429688 576.6875 L 457.375 576.414063 C 457.027344 576.328125 456.671875 576.257813 456.320313 576.179688 L 452.101563 575.269531 C 450.695313 575.003906 449.289063 574.765625 447.886719 574.511719 L 446.828125 574.324219 L 446.304688 574.230469 L 445.777344 574.15625 L 443.671875 573.851563 L 441.570313 573.550781 L 440.519531 573.398438 C 440.167969 573.347656 439.820313 573.316406 439.46875 573.273438 L 435.273438 572.796875 C 433.871094 572.621094 432.480469 572.527344 431.085938 572.398438 C 429.691406 572.28125 428.296875 572.148438 426.902344 572.046875 L 422.730469 571.78125 L 420.648438 571.652344 C 419.953125 571.601563 419.261719 571.585938 418.566406 571.554688 L 414.410156 571.375 C 413.714844 571.347656 413.023438 571.316406 412.328125 571.292969 L 410.257813 571.242188 C 399.195313 570.941406 388.195313 571.015625 377.222656 571.253906 L 368.996094 571.488281 L 366.945313 571.542969 L 364.890625 571.621094 L 360.789063 571.773438 L 356.683594 571.925781 L 355.660156 571.964844 L 354.652344 571.992188 L 352.636719 572.050781 L 344.574219 572.273438 C 333.816406 572.390625 323.042969 572.144531 312.273438 571.558594 C 301.507813 570.902344 290.753906 569.90625 280.03125 568.589844 L 271.992188 567.53125 C 269.316406 567.148438 266.644531 566.726563 263.972656 566.328125 L 261.96875 566.023438 C 261.296875 565.917969 260.632813 565.800781 259.96875 565.6875 L 255.96875 565.007813 L 251.96875 564.324219 L 247.976563 563.574219 C 237.339844 561.585938 226.746094 559.285156 216.226563 556.6875 C 205.703125 554.085938 195.253906 551.183594 184.886719 547.984375 C 175.703125 545.148438 166.585938 542.105469 157.5625 538.789063 C 154.410156 537.1875 151.304688 535.480469 148.277344 533.644531 C 144.960938 531.640625 141.722656 529.492188 138.617188 527.171875 C 135.511719 524.851563 132.527344 522.363281 129.75 519.660156 C 126.980469 516.953125 124.410156 514.027344 122.25 510.816406 C 122.113281 510.617188 121.980469 510.414063 121.851563 510.207031 L 121.460938 509.597656 C 121.203125 509.1875 120.96875 508.765625 120.71875 508.351563 C 120.25 507.503906 119.792969 506.652344 119.394531 505.769531 C 118.585938 504.011719 117.929688 502.179688 117.523438 500.285156 C 117.304688 499.339844 117.179688 498.378906 117.085938 497.414063 C 117.058594 496.929688 117.011719 496.445313 117.019531 495.960938 C 117.019531 495.71875 117.011719 495.476563 117.019531 495.230469 L 117.054688 494.503906 C 117.0625 494.261719 117.089844 494.019531 117.113281 493.777344 C 117.144531 493.535156 117.160156 493.292969 117.195313 493.050781 C 117.277344 492.574219 117.335938 492.085938 117.453125 491.613281 C 117.644531 490.65625 117.949219 489.726563 118.269531 488.804688 C 117.914063 489.714844 117.570313 490.632813 117.34375 491.589844 C 117.207031 492.058594 117.128906 492.546875 117.027344 493.027344 C 116.984375 493.265625 116.953125 493.511719 116.917969 493.753906 C 116.882813 493.996094 116.84375 494.242188 116.828125 494.484375 L 116.765625 495.222656 C 116.746094 495.464844 116.746094 495.710938 116.738281 495.957031 C 116.710938 496.449219 116.738281 496.941406 116.746094 497.4375 C 116.804688 498.417969 116.894531 499.402344 117.078125 500.371094 C 117.417969 502.320313 118.015625 504.214844 118.769531 506.039063 C 119.144531 506.957031 119.574219 507.847656 120.019531 508.730469 C 120.257813 509.160156 120.488281 509.601563 120.730469 510.03125 L 121.105469 510.671875 C 121.226563 510.886719 121.355469 511.097656 121.488281 511.304688 C 123.5625 514.667969 126.066406 517.753906 128.78125 520.613281 C 131.5 523.476563 134.4375 526.121094 137.503906 528.601563 C 139.703125 530.382813 141.976563 532.070313 144.296875 533.6875 C 142.515625 532.964844 140.734375 532.230469 138.964844 531.480469 C 137.722656 530.953125 136.476563 530.414063 135.253906 529.867188 L 134.746094 529.640625 L 134.253906 529.433594 L 133.285156 529.042969 C 132.640625 528.789063 131.992188 528.542969 131.347656 528.300781 C 128.757813 527.332031 126.152344 526.441406 123.523438 525.617188 C 118.269531 523.964844 112.945313 522.5625 107.558594 521.449219 C 102.167969 520.335938 96.71875 519.503906 91.230469 519.058594 C 85.746094 518.613281 80.21875 518.550781 74.730469 519.03125 C 69.25 519.515625 63.792969 520.554688 58.585938 522.355469 C 53.382813 524.144531 48.441406 526.734375 44.125 530.125 C 41.96875 531.816406 39.96875 533.703125 38.152344 535.746094 C 36.332031 537.785156 34.699219 539.984375 33.242188 542.285156 C 34.777344 540.035156 36.484375 537.902344 38.359375 535.9375 C 40.234375 533.972656 42.28125 532.175781 44.46875 530.578125 C 48.84375 527.378906 53.78125 525.007813 58.941406 523.433594 C 64.101563 521.847656 69.46875 521.015625 74.851563 520.726563 C 80.242188 520.441406 85.648438 520.691406 91.007813 521.3125 C 96.371094 521.9375 101.6875 522.9375 106.933594 524.210938 C 112.183594 525.488281 117.359375 527.046875 122.449219 528.839844 C 124.992188 529.738281 127.511719 530.699219 129.996094 531.726563 C 130.617188 531.984375 131.234375 532.242188 131.847656 532.511719 L 132.761719 532.914063 L 133.203125 533.117188 L 133.621094 533.324219 C 134.867188 533.9375 136.105469 534.519531 137.351563 535.101563 C 142.328125 537.417969 147.351563 539.601563 152.40625 541.707031 C 162.519531 545.921875 172.773438 549.773438 183.121094 553.371094 C 193.476563 556.960938 203.929688 560.257813 214.480469 563.257813 C 225.027344 566.253906 235.664063 568.953125 246.382813 571.34375 L 250.402344 572.246094 L 254.433594 573.078125 L 258.46875 573.910156 C 259.140625 574.046875 259.8125 574.191406 260.488281 574.320313 L 262.511719 574.699219 C 265.214844 575.199219 267.910156 575.71875 270.617188 576.203125 L 278.75 577.566406 C 289.613281 579.285156 300.535156 580.679688 311.503906 581.730469 C 322.480469 582.707031 333.5 583.34375 344.542969 583.605469 L 352.828125 583.660156 L 354.902344 583.675781 L 355.9375 583.679688 L 356.960938 583.679688 L 361.03125 583.667969 L 365.097656 583.65625 L 367.132813 583.652344 L 369.164063 583.664063 L 377.292969 583.71875 C 388.121094 583.855469 398.925781 584.160156 409.644531 584.828125 L 411.65625 584.945313 C 412.324219 584.988281 412.992188 585.046875 413.660156 585.09375 L 417.660156 585.402344 C 418.328125 585.460938 418.996094 585.496094 419.660156 585.566406 L 421.648438 585.761719 L 425.628906 586.152344 C 426.949219 586.296875 428.261719 586.46875 429.578125 586.625 C 430.894531 586.792969 432.21875 586.925781 433.515625 587.136719 L 437.425781 587.71875 C 437.75 587.769531 438.078125 587.8125 438.402344 587.871094 L 439.367188 588.042969 L 441.300781 588.390625 L 443.230469 588.734375 L 443.714844 588.824219 L 444.1875 588.925781 L 445.140625 589.128906 C 446.410156 589.402344 447.683594 589.664063 448.945313 589.949219 L 452.6875 590.894531 C 453 590.976563 453.3125 591.046875 453.621094 591.132813 L 454.539063 591.40625 L 456.371094 591.949219 C 461.242188 593.425781 465.929688 595.222656 470.359375 597.429688 C 474.789063 599.636719 478.964844 602.261719 482.949219 605.28125 C 486.9375 608.296875 490.753906 611.703125 494.519531 615.339844 C 498.277344 618.976563 501.988281 622.824219 505.726563 626.75 C 507.90625 629.042969 510.105469 631.351563 512.3125 633.667969 C 512.335938 636.703125 512.335938 639.746094 512.3125 642.792969 C 512.210938 658.515625 511.625 674.441406 511.351563 690.601563 "/>
</g>
</g>
</svg>
